<?xml version="1.0" encoding="UTF-8" standalone="no"?>
<svg width="30px" height="30px" viewBox="0 0 30 30" version="1.1" xmlns="http://www.w3.org/2000/svg" xmlns:xlink="http://www.w3.org/1999/xlink" xmlns:sketch="http://www.bohemiancoding.com/sketch/ns">
    <title>pause</title>
    <description>Created with Sketch (http://www.bohemiancoding.com/sketch)</description>
    <defs></defs>
    <g id="Page-1" stroke="none" stroke-width="1" fill="none" fill-rule="evenodd" sketch:type="MSPage">
        <g id="pause" sketch:type="MSLayerGroup" fill="#FFFFFF">
            <path d="M27,30 L21,30 C19.341,30 18,28.659 18,27 L18,3 C18,1.341 19.341,0 21,0 L27,0 C28.659,0 30,1.341 30,3 L30,27 C30,28.659 28.659,30 27,30 L27,30 Z M9,30 L3,30 C1.341,30 0,28.659 0,27 L0,3 C0,1.341 1.341,0 3,0 L9,0 C10.659,0 12,1.341 12,3 L12,27 C12,28.659 10.659,30 9,30 L9,30 Z" id="Shape" sketch:type="MSShapeGroup"></path>
        </g>
    </g>
</svg>