<?xml version="1.0" encoding="UTF-8" standalone="no"?>
<svg width="30px" height="30px" viewBox="0 0 30 30" version="1.1" xmlns="http://www.w3.org/2000/svg" xmlns:xlink="http://www.w3.org/1999/xlink" xmlns:sketch="http://www.bohemiancoding.com/sketch/ns">
    <title>play</title>
    <description>Created with Sketch (http://www.bohemiancoding.com/sketch)</description>
    <defs></defs>
    <g id="Page-1" stroke="none" stroke-width="1" fill="none" fill-rule="evenodd" sketch:type="MSPage">
        <g id="play" sketch:type="MSLayerGroup" fill="#FFFFFF">
            <path d="M3,30 C2.451,30 1.905,29.85 1.422,29.553 C0.54,29.004 0,28.041 0,27 L0,3 C0,1.959 0.54,0.993 1.422,0.447 C1.905,0.153 2.451,0 3,0 C3.456,0 3.921,0.105 4.341,0.315 L28.341,12.315 C29.358,12.825 30,13.863 30,15 C30,16.137 29.358,17.178 28.341,17.685 L4.341,29.685 C3.921,29.895 3.456,30 3,30 L3,30 Z" id="Shape" sketch:type="MSShapeGroup"></path>
        </g>
    </g>
</svg>