<?xml version="1.0" encoding="UTF-8" standalone="no"?>
<svg width="48px" height="30px" viewBox="0 0 48 30" version="1.1" xmlns="http://www.w3.org/2000/svg" xmlns:xlink="http://www.w3.org/1999/xlink" xmlns:sketch="http://www.bohemiancoding.com/sketch/ns">
    <title>rewind</title>
    <description>Created with Sketch (http://www.bohemiancoding.com/sketch)</description>
    <defs></defs>
    <g id="Page-1" stroke="none" stroke-width="1" fill="none" fill-rule="evenodd" sketch:type="MSPage">
        <g id="rewind" sketch:type="MSLayerGroup" fill="#FFFFFF">
            <path d="M46.416,29.646 C45.441,30.168 44.256,30.111 43.338,29.496 L25.338,17.496 C24.501,16.938 24,16.002 24,15 C24,13.995 24.501,13.062 25.335,12.504 L43.335,0.504 C44.256,-0.108 45.438,-0.168 46.413,0.354 C47.388,0.876 48,1.893 48,3 L48,27 C48,28.107 47.391,29.121 46.416,29.646 L46.416,29.646 Z M22.416,29.646 C21.441,30.168 20.256,30.111 19.338,29.496 L1.338,17.496 C0.501,16.938 0,16.002 0,15 C0,13.995 0.501,13.062 1.335,12.504 L19.335,0.504 C20.256,-0.108 21.438,-0.168 22.413,0.354 C23.388,0.876 24,1.893 24,3 L24,15 L24,27 C24,28.107 23.391,29.121 22.416,29.646 L22.416,29.646 Z" id="Shape" sketch:type="MSShapeGroup"></path>
        </g>
    </g>
</svg>